<svg id="Layer_1" data-name="Layer 1" xmlns="http://www.w3.org/2000/svg" viewBox="0 0 762.36 257.6"><defs><style>.cls-1{fill:#fff;}</style></defs><title>Logos</title><path class="cls-1" d="M344.4-173.12l-15.06,15.06-14.9,14.9-15.06,15a16.62,16.62,0,0,1-23.51,0l-15.06-15,8.28-8.3,13.27,13.27h0a7.44,7.44,0,0,0,10.52,0l13.28-13.27,14.9-14.89,13.27-13.3h0a7.44,7.44,0,0,0,0-10.52l-13.27-13.27,8.28-8.24,15.06,15a0.35,0.35,0,0,1,.36.13A16.49,16.49,0,0,1,344.4-173.12Zm-45-68.54a16.63,16.63,0,0,0-23.51,0l-15.06,15-14.9,14.94-15.06,15.06a16.62,16.62,0,0,0,0,23.51L245.91-158l8.28-8.3-13.25-13.28a7.44,7.44,0,0,1,0-10.52h0l13.25-13.29,14.9-14.9,13.27-13.28a7.44,7.44,0,0,1,10.52,0h0l13.28,13.28,8.28-8.29Zm-45.19,75.32-13.25-13.28a7.44,7.44,0,0,1,0-10.52h0l13.25-13.29,14.9-14.9,13.27-13.28a7.44,7.44,0,0,1,10.52,0h0l13.28,13.28,8.28-8.29-15.06-15a16.63,16.63,0,0,0-23.51,0l-15.06,15-14.9,14.94-15.06,15.06a16.62,16.62,0,0,0,0,23.51L245.91-158Zm162.24-18.54L365.1-133.55a24.46,24.46,0,0,1-19.31,7.08,24.47,24.47,0,0,1-7.08,19.3L287.62-56.09l-51.08-51.08a24.46,24.46,0,0,1-7.08-19.3,24.45,24.45,0,0,1-19.3-7.08l-51.34-51.34L209.92-236a24.47,24.47,0,0,1,19.3-7.08,24.47,24.47,0,0,1,7.08-19.3l51.32-51.33,51.33,51.34A24.45,24.45,0,0,1,346-243,24.46,24.46,0,0,1,365.34-236ZM245.9-151.46l14.9-14.89,18.54-18.54-18.54-18.55,8.26-8.24,18.55,18.55,18.54-18.55,14.9-14.94,9.35-9.35a12.82,12.82,0,0,0,.27-18.11l-43.06-43.06-43.06,43.05a12.84,12.84,0,0,0,.27,18.13l9.35,9.34-8.29,8.28-9.34-9.35h-0.13a13,13,0,0,0-18.24,0l-42.8,42.8,43.07,43,0.16,0.16a12.51,12.51,0,0,0,17.7-.16Zm154-33.43-42.8-42.81a13.14,13.14,0,0,0-18.37,0l-9.36,9.36-14.9,14.9-18.54,18.55,18.54,18.54-8.26,8.29-18.55-18.55-18.54,18.55-14.9,14.9-9.61,9.6a12.84,12.84,0,0,0,.25,18.12l42.8,42.81,42.8-42.8a12.83,12.83,0,0,0,.25-18.12l-9.61-9.61,8.28-8.3,9.61,9.61,0.16,0.16a12.52,12.52,0,0,0,17.7-.16Zm-55.11-11.63a16.49,16.49,0,0,1-.36,23.39l-15.06,15.06-14.9,14.9-15.06,15a16.62,16.62,0,0,1-23.51,0l-15.06-15,8.28-8.3,13.27,13.27h0a7.44,7.44,0,0,0,10.52,0l13.28-13.27,14.9-14.89,13.27-13.3h0a7.44,7.44,0,0,0,0-10.52l-13.27-13.27,8.28-8.24,15.06,15A0.35,0.35,0,0,1,344.75-196.52Zm-45.38-45.15a16.63,16.63,0,0,0-23.51,0l-15.06,15-14.9,14.94-15.06,15.06a16.62,16.62,0,0,0,0,23.51L245.91-158l8.28-8.3-13.25-13.28a7.44,7.44,0,0,1,0-10.52h0l13.25-13.29,14.9-14.9,13.27-13.28a7.44,7.44,0,0,1,10.52,0h0l13.28,13.28,8.28-8.29Zm45.38,45.15a0.35,0.35,0,0,0-.36-0.13l-15.06-15-8.28,8.24,13.27,13.27a7.44,7.44,0,0,1,0,10.52h0l-13.27,13.3-14.9,14.89-13.28,13.27a7.44,7.44,0,0,1-10.52,0h0l-13.27-13.27-8.28,8.3,15.06,15a16.62,16.62,0,0,0,23.51,0l15.06-15,14.9-14.9,15.06-15.06A16.49,16.49,0,0,0,344.75-196.52Zm126.4,19.34h11.67v13.44a33,33,0,0,1-5.16,1.32,31.6,31.6,0,0,1-5.56.47,21,21,0,0,1-10.05-2.22,14.08,14.08,0,0,1-6.22-7q-2.1-4.78-2.1-12.39c0-5.12.7-9.25,2.06-12.39a13.91,13.91,0,0,1,6.24-6.92,22.17,22.17,0,0,1,10.47-2.22,30.17,30.17,0,0,1,9.28,1.45c2.9,1,4.37,2.19,9.37,3.68V-209c-5-1.31-6.53-2.29-9.72-2.95a53.09,53.09,0,0,0-10.25-1,31.14,31.14,0,0,0-14.6,3.16,20.86,20.86,0,0,0-9.2,9.7q-3.16,6.54-3.17,16.53t3.16,16.62a20.8,20.8,0,0,0,9.18,9.7,31.21,31.21,0,0,0,14.65,3.16,48.19,48.19,0,0,0,11.1-1.28,48.18,48.18,0,0,0,10.5-3.84v-26.3H471.16v8.33Zm57.45-21.34c0.91,0.23,2.55.48,2.55,0.77v7.18c-1.67-.17-2.9-0.3-4.33-0.38a39.24,39.24,0,0,0-4.5,0c-1.43.09-2.79,0.21-4.15,0.38a22.6,22.6,0,0,0-3.69.51v36.21h-8.33V-194c0-.45,1.72-1.08,3.71-1.88a39.9,39.9,0,0,1,6.71-2.09,38.68,38.68,0,0,1,8.29-.9A17.15,17.15,0,0,1,528.61-198.52Zm31.46-3.66h-5.3l4.44-11.67h9Zm11,7.89a12.3,12.3,0,0,0-3.63-2.65,19.88,19.88,0,0,0-4.56-1.45,25.32,25.32,0,0,0-4.81-.47,47.16,47.16,0,0,0-9.69,1,22.25,22.25,0,0,0-7.19,2.61v8.37a19.42,19.42,0,0,1,6.6-3.21,26.79,26.79,0,0,1,7.57-1.15c3.36,0,6.06.7,7.89,2.09a7.92,7.92,0,0,1,2.95,6.62v4c0-.39-1.52-0.76-2.32-1.1A25.24,25.24,0,0,0,559-181a30.41,30.41,0,0,0-5.84-.51,20.66,20.66,0,0,0-8.37,1.54,11.56,11.56,0,0,0-5.38,4.61,14.87,14.87,0,0,0-1.88,7.86A13.67,13.67,0,0,0,539-160.8a11.22,11.22,0,0,0,4,4.23,17.32,17.32,0,0,0,5.57,2.18,30.82,30.82,0,0,0,6.37.64,55.58,55.58,0,0,0,10-.81,14.67,14.67,0,0,0,7.09-3.08c1.74-1.51,2.47-3.66,2.47-6.45v-20.5a15.52,15.52,0,0,0-.81-5.64A11.78,11.78,0,0,0,571.05-194.29Zm-7.42,32.85a30.91,30.91,0,0,1-7.6.68,14.26,14.26,0,0,1-4.56-.73,8.42,8.42,0,0,1-3.62-2.31,5.86,5.86,0,0,1-1.44-4.14,5.8,5.8,0,0,1,2.55-5.13c1.68-1.14,4.19-1.71,7.44-1.71a25.27,25.27,0,0,1,6.88.9,19.81,19.81,0,0,0,2.88,1v8.32A3.12,3.12,0,0,1,563.63-161.44Zm45.14-54.42a8.94,8.94,0,0,1,2.39.43v7.95c0-.29-1.23-0.53-1.77-0.73a7.4,7.4,0,0,0-2.28-.3,16.08,16.08,0,0,0-2.6.21,5.23,5.23,0,0,0-2.38,1,5.58,5.58,0,0,0-1.76,2.43,12.47,12.47,0,0,0-.88,4.44v3.22h11.67v6.67H599.5v36.67h-8.33v-36.67H584.5v-6.67h6.67v-2.45a24.54,24.54,0,0,1,.94-7.52,13.09,13.09,0,0,1,2.56-4.78,11,11,0,0,1,3.59-2.69,13.65,13.65,0,0,1,4-1.15A29.94,29.94,0,0,1,606-216,22.1,22.1,0,0,1,608.77-215.86Zm19.31,18.68,0.09,43.34H619.5v-43.34h8.58Zm-8.58-15h8.33v8.33H619.5v-8.33Zm47.92,49.25a31.43,31.43,0,0,0,5.42-2v8a23.52,23.52,0,0,1-6.1,2.05,32.35,32.35,0,0,1-6.79.68,27,27,0,0,1-7.69-1.11,18.86,18.86,0,0,1-6.79-3.63,17.43,17.43,0,0,1-4.83-6.75,27.09,27.09,0,0,1-1.8-10.55,29.88,29.88,0,0,1,1.71-10.85,17.49,17.49,0,0,1,4.69-7,17.78,17.78,0,0,1,6.78-3.72,27.6,27.6,0,0,1,7.79-1.11,36.59,36.59,0,0,1,6.79.64,24.14,24.14,0,0,1,6.23,1.92v8a27.92,27.92,0,0,0-5.72-2,24.15,24.15,0,0,0-6-.73q-6.66,0-10,3.33t-3.37,10.77q0,7.69,3.21,11.23t10.47,3.55A22.36,22.36,0,0,0,667.42-162.93Zm48-31.36a13.91,13.91,0,0,0-4-2.65,19.75,19.75,0,0,0-4.55-1.45,25,25,0,0,0-4.78-.47,42.82,42.82,0,0,0-9.23,1c-3,.66-6.67,1.52-6.67,2.61v8.37c0-1.37,3.48-2.44,6-3.21a24.48,24.48,0,0,1,7.22-1.15c3.36,0,5.71.7,7.54,2.09s2.54,3.6,2.54,6.62v4c0-.39-1.21-0.76-2-1.1a23,23,0,0,0-4.65-1.41,29.88,29.88,0,0,0-5.79-.51,20.53,20.53,0,0,0-8.34,1.54,11.52,11.52,0,0,0-5.37,4.61,14.87,14.87,0,0,0-1.87,7.86,13.67,13.67,0,0,0,1.5,6.71,11.28,11.28,0,0,0,4,4.23,17.57,17.57,0,0,0,5.62,2.18,31.7,31.7,0,0,0,6.46.64,57.67,57.67,0,0,0,10.18-.81,15.3,15.3,0,0,0,7.25-3.08,8.35,8.35,0,0,0,3-6.45v-20.5a15.22,15.22,0,0,0-1.33-5.64A12.14,12.14,0,0,0,715.38-194.29Zm-8.1,32.85a29,29,0,0,1-7.39.68,14,14,0,0,1-4.51-.73,8.35,8.35,0,0,1-3.6-2.31,5.85,5.85,0,0,1-1.43-4.14,5.79,5.79,0,0,1,2.54-5.13c1.68-1.14,4.17-1.71,7.41-1.71a23.45,23.45,0,0,1,6.63.9c1,0.29,2.57.61,2.57,1v8.32A2.87,2.87,0,0,1,707.28-161.44Zm58.89-.74h26.67v8.33H756.17v-56.67h10v48.34Zm65-35h8.33V-171c0,5.7-1.9,10-5.17,12.9s-8.1,4.36-14,4.36a24.53,24.53,0,0,1-10.16-1.92,14.51,14.51,0,0,1-6.6-5.77,18.34,18.34,0,0,1-2.44-9.57v-26.17h10v24.89c0,3.65.52,6.34,2.15,8.07s3.86,2.61,7.28,2.61,6.13-.87,7.75-2.61a11.54,11.54,0,0,0,2.82-8.07v-24.89Zm43.08-1.34c0.91,0.23,1.92.48,1.92,0.77v7.18c-1.67-.17-2.22-0.3-3.64-0.38a28.24,28.24,0,0,0-3.81,0c-1.43.09-2.69,0.21-4.05,0.38s-1.82.34-3.49,0.51v36.21h-10V-194c1.67-.45,2.35-1.08,4.35-1.88a49,49,0,0,1,7.34-2.09,38.68,38.68,0,0,1,8.29-.9A11.49,11.49,0,0,1,874.26-198.52Zm45.91,8.29a11.79,11.79,0,0,0-2.64-4.06,13.22,13.22,0,0,0-3.83-2.65,20.2,20.2,0,0,0-4.6-1.45,26,26,0,0,0-4.88-.47,44.1,44.1,0,0,0-9.37,1,20.93,20.93,0,0,0-7,2.61v8.37a17.73,17.73,0,0,1,6.27-3.21,26.12,26.12,0,0,1,7.47-1.15c3.36,0,5.56.7,7.39,2.09s2.2,3.6,2.2,6.62v4c0-.39-0.89-0.76-1.69-1.1a19.69,19.69,0,0,0-4.31-1.41,30,30,0,0,0-5.8-.51A20.57,20.57,0,0,0,891-180a11.53,11.53,0,0,0-5.37,4.61,14.87,14.87,0,0,0-1.87,7.86,13.67,13.67,0,0,0,1.5,6.71,11.25,11.25,0,0,0,4,4.23,17.44,17.44,0,0,0,5.6,2.18,31.24,31.24,0,0,0,6.41.64,56.58,56.58,0,0,0,10.08-.81,14.78,14.78,0,0,0,7.11-3.08,8.12,8.12,0,0,0,2.67-6.45v-20.5A15.35,15.35,0,0,0,920.17-190.23Zm-10.89,28.79a26,26,0,0,1-7,.68,14.09,14.09,0,0,1-4.53-.73,8.41,8.41,0,0,1-3.61-2.31,5.87,5.87,0,0,1-1.46-4.14,5.76,5.76,0,0,1,2.49-5.13c1.68-1.14,4.07-1.71,7.32-1.71a22.5,22.5,0,0,1,6.49.9c1,0.29,2.25.61,2.25,1v8.32C911.18-162.95,910.87-161.89,909.28-161.44Z" transform="translate(-158.82 313.69)"/></svg>