<svg xmlns="http://www.w3.org/2000/svg" viewBox="0 0 2025.23 1335.21"><defs><style>.cls-1{fill:#fff;}.cls-2{fill:#004659;}.cls-18,.cls-3{fill:#352c38;}.cls-3{opacity:0.15;}.cls-18,.cls-3,.cls-5{isolation:isolate;}.cls-4{fill:#f19c7c;}.cls-5,.cls-6{fill:#c6704e;}.cls-5{opacity:0.6;}.cls-7{fill:#1a1a1a;}.cls-8{fill:#f2f2f2;}.cls-9{fill:#0e92cc;}.cls-10{fill:#006284;}.cls-11{fill:#a21873;}.cls-12{fill:#720553;}.cls-13{fill:#2a0254;}.cls-14{fill:#e2e2e2;}.cls-15{fill:#c1bdc0;}.cls-16{fill:#ffac9d;}.cls-17{fill:none;}.cls-18{opacity:0.2;}.cls-19{fill:#ce795f;}.cls-20{fill:#cc8271;}</style></defs><title>Ativo 1</title><g id="Camada_2" data-name="Camada 2"><g id="Layer_3" data-name="Layer 3"><path class="cls-1" d="M43.86,867C162.32,630.4,551.09,535.29,777.28,615.55c29.14,10.34,60.34,25.28,107.76,24,139-3.91,196.87-141.46,308.33-221.52,222.46-159.78,633.52-72.64,697.49,83.82C1939.35,620.37,1774.16,743.7,1843,867c48.41,86.75,160.35,79.76,179.61,161.65,14.61,62.09-33.75,134.15-80.83,173.62-155.4,130.28-341.87-57-673.54,9-221.47,44.06-265,152.78-413.1,116.75-149.32-36.34-142-155.9-293.37-206.55-227.22-76-417.19,135.23-517.88,50.88C-24.11,1115.41-4.3,963.2,43.86,867Z"/><polygon class="cls-2" points="1207.26 208.82 1216.2 210.38 1216.51 220.46 1207.26 208.82"/><rect class="cls-2" x="1273.99" y="214.95" width="18.09" height="18.09"/><ellipse class="cls-3" cx="1260.38" cy="1137.23" rx="183.77" ry="33.37"/><path class="cls-4" d="M1295.82,1015.93c1.14,3.32,4.37,103.94,9.87,105.08s218.59,25.36,33-26.3l8.74-171.08Z"/><path d="M1299.67,1098.77s2.7,25.57,6,25.57,105.7,10.81,110.38.62-69.33-30.35-69.33-30.35l-9.46,12.16Z"/><path class="cls-1" d="M1412.13,1118.93h0c-4.47,9.67-97.81.31-109.35-.52.84,3.43,1.88,6,2.92,6,3.32,0,105.7,10.81,110.38.62C1417,1123.3,1415.35,1121.22,1412.13,1118.93Z"/><path class="cls-4" d="M1214.54,1034.63l-9.88,81.29s-57.06,50.51-80.14,50.51,47.19-67,47.19-67l-9.87-168.07Z"/><path d="M1160.28,1108.23l21.52,9.45,25.57-16.83-1.36,17.46s-73.38,60.6-85.54,49.16S1160.28,1108.23,1160.28,1108.23Z"/><path class="cls-1" d="M1122.55,1159.36a5.82,5.82,0,0,1-1.77-4.15c-2.39,5.3-2.91,9.66-.21,12.26,12.17,11.44,85.55-49.16,85.55-49.16l.52-6.86C1196.24,1119.87,1133.67,1169.86,1122.55,1159.36Z"/><path d="M1158.1,562.53s-12.06,354.23-4.06,499c0,0,18.09,21.62,64.14,2.18l50.1-408.28h0l24,408.28s24,17.25,56.12-4.37l18.09-535.71Z"/><polygon class="cls-4" points="1275.34 228.67 1272.85 171.61 1211.21 148.95 1214.64 227.74 1164.44 248.73 1271.71 303.93 1324.92 238.34 1275.34 228.67"/><path class="cls-5" d="M1213.71,205l-2.5-55.92,61.64,22.66,2.39,52C1253.93,220.15,1233.25,214.33,1213.71,205Z"/><path class="cls-4" d="M1218.07,183.15s17.57,33,67.46,24.32c35.13-6.14,37.73-55.82,32.74-104.88-7.79-76.4-32.74-79.51-70-73.8C1163.5,41.78,1218.07,183.15,1218.07,183.15Z"/><path d="M1193.13,36.9c12.88,11.43,13.92,2.7,26.4,14.55,12.89,50.2-5.3,60.5-5.3,60.5l.62,21.2-8,.93,5,30.46s-23-25.88-34.51-77.75C1168.8,48.23,1181.17,36.38,1193.13,36.9Z"/><path d="M1215.47,54.78s27.65,20.06,63,19c0,0,15.18,0,48.85-6.55,0,0,10.61-13.51,2.71-20.06C1312.66,32.64,1317,0,1253,0s-64,41.26-61.85,58.62S1215.47,54.78,1215.47,54.78Z"/><path class="cls-6" d="M1282.2,153.31c1.25-.62,2.6-1.24,3.85-1.87s2.6-1.24,3.85-1.76l7.79-3.54-.31.94c-2.18-4.16-4.37-8.32-6.34-12.48-1-2.07-2-4.26-2.91-6.34-.42-1-.94-2.18-1.35-3.22s-.73-2.28-1-3.43c-.63-2.29-1.15-4.57-1.67-6.86s-1-4.57-1.45-6.86-.83-4.57-1.25-6.86-.83-4.57-1.14-6.86l3.43,13.51,1.77,6.76c.62,2.29,1.14,4.47,1.87,6.65a27.72,27.72,0,0,0,1.14,3.22c.42,1,.83,2.08,1.35,3.23.94,2.08,2,4.15,2.91,6.34,2,4.15,4.06,8.42,6.13,12.57l.32.73-.73.31-8,3c-1.36.52-2.71.93-4.06,1.45S1283.56,152.9,1282.2,153.31Z"/><path class="cls-7" d="M1315.15,112.26a14.43,14.43,0,0,0-.41-1.67,21.14,21.14,0,0,0-1.56-4.26,14.24,14.24,0,0,0-3.74-4.88,9.65,9.65,0,0,0-6.55-1.77,2.08,2.08,0,0,0-.83.1l-.94.21c-.52.11-1.14.31-1.66.42a9.54,9.54,0,0,0-6.34,6.55,16,16,0,0,0-.83,4.36,7.31,7.31,0,0,0,0,1.77c-.11-.52-.21-1.14-.32-1.77a17.58,17.58,0,0,1,.32-4.68,10.18,10.18,0,0,1,6.75-7.58,12.17,12.17,0,0,1,1.87-.52l.94-.11a3.31,3.31,0,0,1,1-.1,10.06,10.06,0,0,1,3.95.41,10.87,10.87,0,0,1,3.43,1.77A12.81,12.81,0,0,1,1314,106a22.9,22.9,0,0,1,.73,2.5,7.49,7.49,0,0,1,.31,2A11.12,11.12,0,0,1,1315.15,112.26Z"/><path class="cls-7" d="M1272.85,115.48a13.73,13.73,0,0,0-.42-1.66,28.63,28.63,0,0,0-1.56-4.27,12.3,12.3,0,0,0-3.84-4.78,9.21,9.21,0,0,0-6.55-1.66c-.31,0-.62.1-.83.1l-.94.21a10.59,10.59,0,0,0-1.66.52,9.92,9.92,0,0,0-6.34,6.65,21,21,0,0,0-.83,4.37v1.77c-.11-.52-.21-1.15-.31-1.77a14.18,14.18,0,0,1,.2-4.68,10.24,10.24,0,0,1,6.66-7.69,11.58,11.58,0,0,1,1.87-.52l.93-.21a3.34,3.34,0,0,1,1-.1,12.35,12.35,0,0,1,4,.31,9,9,0,0,1,3.43,1.77,12.83,12.83,0,0,1,3.74,5.4,21.43,21.43,0,0,1,.73,2.5c.21.72.31,1.45.42,2A5.74,5.74,0,0,1,1272.85,115.48Z"/><path class="cls-7" d="M1273.58,85.75l-.42-.21c-.31-.1-.62-.2-1.14-.41a7.87,7.87,0,0,0-1.87-.52c-.73-.21-1.56-.42-2.39-.63s-1.87-.31-2.91-.51l-3.23-.32c-1.14-.1-2.28,0-3.43,0s-2.39.21-3.53.32-2.39.31-3.53.62-2.29.52-3.43.83-2.19.62-3.12.94-1.87.72-2.81,1-1.66.62-2.29.93a14.74,14.74,0,0,0-1.76.83c-.94.42-1.56.63-1.56.63s.52-.32,1.45-.94l1.67-1a21.65,21.65,0,0,1,2.18-1.14c.83-.42,1.77-.83,2.7-1.25l3.12-1.14,3.43-.94,3.64-.62c1.24-.11,2.49-.21,3.74-.21s2.39,0,3.64.1a19.09,19.09,0,0,1,3.32.52c.94.21,2,.42,2.91.73a21.85,21.85,0,0,1,2.39.83c.73.31,1.25.63,1.77.83A4,4,0,0,1,1273.58,85.75Z"/><path class="cls-7" d="M1316.5,84.19a1.37,1.37,0,0,0-.31-.21c-.2-.1-.62-.2-1-.41a10.38,10.38,0,0,0-1.66-.52c-.62-.21-1.35-.31-2.18-.52a20.17,20.17,0,0,0-2.6-.42,26.6,26.6,0,0,0-2.91-.2,29.52,29.52,0,0,0-3.12,0c-1,0-2.08.2-3.22.31s-2.08.31-3.12.62-2.08.52-3,.83l-2.81.94-2.39,1c-.73.31-1.46.62-2.08.93s-1.14.52-1.56.73c-.83.42-1.35.62-1.35.62s.42-.31,1.25-.83a8.69,8.69,0,0,1,1.45-.93,7,7,0,0,1,.94-.63l1-.52c.72-.41,1.56-.83,2.39-1.24l2.8-1.15q1.41-.47,3.12-.93c1-.31,2.18-.42,3.22-.63l3.33-.31a31.49,31.49,0,0,1,3.22.11c.52.1,1,.1,1.56.2l1.46.32a23.49,23.49,0,0,1,2.6.72,11.94,11.94,0,0,1,2.07.84c.63.31,1.15.52,1.56.72A2.18,2.18,0,0,1,1316.5,84.19Z"/><path class="cls-8" d="M1287.82,184.08c.1,0,.1,0,.2-.1a6.27,6.27,0,0,1,1.25-.52.11.11,0,0,0,.11-.11c10.49-5.09,13-15.28,13.51-19.33v-1.77l-56,.94v2.08a.73.73,0,0,0,.11.41.38.38,0,0,0,.1.31c0,.11.11.32.11.42a.39.39,0,0,0,.1.31c0,.11.1.31.1.42s.11.21.11.41.1.32.1.52.11.21.11.42.1.31.2.52.11.31.11.41.1.42.2.52.11.32.11.42.1.42.21.62.1.32.2.42a1.43,1.43,0,0,1,.21.62c.11.11.11.32.21.42A11.8,11.8,0,0,0,1250,174v.1h0c3.54,6.24,10.92,12.79,26.3,12.27a34,34,0,0,0,9.67-1.67c.1,0,.1,0,.2-.1A4.37,4.37,0,0,0,1287.82,184.08Z"/><path class="cls-4" d="M1394.77,464.52s-31,6.54-44.69-103.53l39.29-28.58s18.6,34.71,28.27,64.85S1394.77,464.52,1394.77,464.52Z"/><path class="cls-9" d="M1339.89,239s39.6,47.09,50.21,86c0,0-20.58,23.49-41.48,27S1339.89,239,1339.89,239Z"/><path class="cls-10" d="M1390.72,320s-34.09,32.63-78,44.07l3.74,11.64s36.28,2.29,84.41-37.32Z"/><path class="cls-4" d="M1363.8,417.74s-.11,40.85,35.65,36.9,69.12-203,69.12-203-28.89,5-31.39,8.84C1426.16,278,1393.32,334.17,1363.8,417.74Z"/><path class="cls-9" d="M1368.48,557.54c-15.49,4.89-58.32,17.78-75,18.5-30.24,1.36-115-7.69-134.08-9.77a4.57,4.57,0,0,1-4.16-4.26c-2.91-35-23.91-296.65-2.7-314.73,9.77-8.32,22.66-13.83,32.84-17.15a135,135,0,0,1,17-4.47L1218.49,236l29.62,18.91L1268.28,294l20.06-66.21a63.36,63.36,0,0,1,8.94-1.46,65.32,65.32,0,0,1,18.5.73,49.8,49.8,0,0,1,29.1,15.9c19.85,22.45,1.25,219.32,29.62,306.94C1375.54,553.18,1371.91,556.4,1368.48,557.54Z"/><path class="cls-4" d="M1226.6,527.5c-7.8,0-17.67-7-21.1-5.92a11.42,11.42,0,0,0-2,.83h-.21a8.14,8.14,0,0,0-4.57,5.51,1,1,0,0,0-.1.52c-.73,8.73,9.56,25.36,14.86,32.32,7.38,9.67,16.73,23.5,9.15,25.57s-6.14-7.38-26.3-25.77l-2.5,1.35c-1.56-1.25,4.89,16.42,13.83,31,6.13,10.09-2.6,11-6.13,8.94s-8.22-13-12.79-20.16c-2.91-4.78-5.92-9.77-7.8-12.79l-3.63.42c2.39,23.28,10.5,27.85,5.19,32.12s-13.3-11.13-14.13-18.51c-.42-3.22-2.6-8.83-5-14.24-1.66,18.19,3.64,23.29-1.35,25.78s-9-11.54-8.42-17.77-4.58-25.26-4.58-25.26c-6.65-14.24-10.29-22.14-10.08-31.08h0a2.7,2.7,0,0,0-1-2.08c-41.78-29.62-110.17-98-118.18-134.71-3.53-16.21,12.68-36.69,36-57.06,31.18-27.13,75-53.74,101.34-68.81,13.72-7.79,22.76-12.58,22.76-12.58s34.82,47.82,17,66.84c-11.85,12.68-53,41.06-79,58.52-.1.1-.31.21-.41.31-12.68,8.52-21.62,14.34-21.62,14.34l.2.32L1146.35,468a93.69,93.69,0,0,0,22.25,25.15,16.49,16.49,0,0,0,3.11,2.18c7.07,3.64,18.71-.1,30.25,9s30.56,15.18,30.56,15.18S1234.29,527.5,1226.6,527.5Z"/><path class="cls-5" d="M1175.56,326.48c-8.94,9.56-34.4,28-57.48,44-.1.1-.31.21-.42.31-7.69,5.3-15.07,10.29-21.51,14.66q-3.44-3.29-6.55-6.55c-13.82-14.35-27.44-32.54-33.88-52.39,31.18-27.13,75-53.74,101.34-68.81C1168.08,274.72,1189.07,312,1175.56,326.48Z"/><path class="cls-9" d="M1193.54,227.84a338.78,338.78,0,0,0-52.8,20.58c-26.61,13.2-64.44,47.81-64.44,47.81s12,52.08,48.74,78.79c0,0,78.79-44.69,78.79-62S1193.54,227.84,1193.54,227.84Z"/><path class="cls-10" d="M1081.39,290.1s14.14,50.1,47.71,84.92l-9.25,9.15s-33.68-17.46-57-81.91Z"/><path class="cls-11" d="M1265.05,341.45l-2.91.62s.32,1.35-.2.31-1-2.49-1.88-4.26c-.62-1.45-1.45-3.22-2.28-5.2-1.25-2.91-2.81-6.23-4.47-9.87-1.46-3-3-6.34-4.78-9.77s-3.64-7-5.62-10.6c-1-1.77-2.07-3.64-3.11-5.41-.52-.93-1-1.76-1.67-2.8s-1.14-1.87-1.66-2.81c-1.14-1.87-2.29-3.74-3.53-5.51l-1.88-2.7c-.62-.94-1.24-1.87-1.87-2.7-1.24-1.87-2.49-3.64-3.84-5.41s-2.6-3.53-3.85-5.3c-2.6-3.53-5.3-6.86-7.79-10.08s-5.2-6.24-7.7-9.15-4.88-5.4-7.06-7.79-4.37-4.47-6.24-6.24c-.94-.94-1.77-1.66-2.6-2.5-.41-.41-.83-.72-1.14-1s-.73-.51-1-.83c-.62-.52-1.14-1-1.66-1.45s-.73-.52-1-.73a134.87,134.87,0,0,1,16.94-4.47l16.11,10.29c.62.73,1.35,1.46,2,2.18,2.71,3.12,5.51,6.34,8.32,9.88,1.35,1.77,2.81,3.53,4,5.4s2.71,3.75,4.06,5.72c2.7,3.85,5.19,7.9,7.59,11.95s4.67,8.32,6.75,12.48c.52,1,.94,2.08,1.46,3.11s.93,2.08,1.45,3.12c.94,2.19,1.77,4.26,2.6,6.34,1.56,4.16,2.91,8.32,4,12.27s2,7.69,2.71,11.22,1.14,6.76,1.45,9.57a13.21,13.21,0,0,1,.21,2.08c.21,2,.31,3.84.42,5.4v.52c.1,1.87.1,3.22.1,4.26S1265.05,341.45,1265.05,341.45Z"/><path class="cls-12" d="M1265.16,343.22H1263s-.51.1-.93-.84-1-2.49-1.87-4.26c-.63-1.45-1.46-3.22-2.29-5.19a22.27,22.27,0,0,1,3.85-1c1.14-.21,2.28-.32,3.43-.42.21,2,.31,3.85.41,5.4v.52c.11,1.88.11,3.23.11,4.27A2.83,2.83,0,0,1,1265.16,343.22Z"/><path class="cls-13" d="M1263,342.7s1.15-3.64,0-5.62h6.55l.63.31Z"/><path class="cls-11" d="M1315.47,227.11a17.38,17.38,0,0,1-.11,2.39c-.1,1.77-.21,3.74-.31,5.62s-.31,3.95-.62,6c-.52,4.06-1.15,8.32-2,12.79-.41,2.18-.83,4.47-1.35,6.65s-1,4.47-1.66,6.76c-1.15,4.57-2.5,9.14-4,13.61s-3.23,8.94-4.89,13.31c-.41,1-.93,2.08-1.35,3.22s-.94,2.08-1.45,3.12c-1,2.18-2.08,4.16-3,6.13a124.84,124.84,0,0,1-6.55,11.12c-2.28,3.43-4.47,6.55-6.65,9.36s-4.26,5.3-6.24,7.48-3.74,3.95-5.19,5.41a31.75,31.75,0,0,1-2.91,2.7,6.31,6.31,0,0,1-4.37,0c.1-.21.31-.73.83-1.66s1-2.19,1.77-3.85h0c.1-.1.1-.31.21-.42,1.66-3.63,4.15-8.83,6.75-15.07,1.35-3.12,2.71-6.44,4.16-10s2.81-7.27,4.26-11.22c.73-2,1.35-4,2-5.93.31-1,.62-2,1-3l.93-3.12q.95-3.12,1.87-6.23a27.69,27.69,0,0,0,.84-3.23,30.28,30.28,0,0,0,.83-3.22c.52-2.18,1.14-4.26,1.56-6.44s1-4.26,1.45-6.45c.94-4.26,1.66-8.42,2.39-12.57s1.35-8,1.77-11.75.83-7.28,1.14-10.5c.11-.62.11-1.25.21-1.87A69.88,69.88,0,0,1,1315.47,227.11Z"/><polygon class="cls-10" points="1267.96 294.05 1256.95 252.79 1207.26 208.82 1193.54 227.84 1243.12 281.79 1252.16 263.39 1267.96 294.05"/><polygon class="cls-10" points="1292.08 214.95 1270.67 255.28 1268.07 294.67 1278.25 264.01 1290.1 275.13 1301.12 229.5 1292.08 214.95"/><path class="cls-11" d="M1283.45,337.08h-37.31a1.2,1.2,0,0,0-1.25,1.25h0v58.52a1.2,1.2,0,0,0,1.25,1.25h37.31a1.2,1.2,0,0,0,1.25-1.25h0V338.33a1.27,1.27,0,0,0-1.25-1.25Zm-11.54,7.07h-12.37a.6.6,0,0,1-.62-.62.68.68,0,0,1,.62-.63h12.37a.61.61,0,0,1,.63.63.6.6,0,0,1-.63.62Z"/><path class="cls-4" d="M1505.89,215.57c-5.3,3.43-16.74,19.44-16.74,19.44-6.86,14.14-10.7,21.93-17.88,27.44s-10,27.75-10,27.75-23.18,9.26-36.7-8.31c0,0,7.38-25.36,6.55-29.21-1.66-7.79-12-14.45-12.05-29.21s-7.38-33.26-7.38-33.26,5.19-6.23,10.08-.2,5.71,18.08,8.73,20.06a19.41,19.41,0,0,0,1.87,1,.1.1,0,0,1,.1.1,8.41,8.41,0,0,0,7.07.1c.21,0,.31-.1.52-.2,7.28-4.89,13.72-23.39,15.8-31.81,2.91-11.75,7.69-27.86,14.14-23.18s-1.87,9.46-3.43,36.69l2.6,1c0,2,9.66-14.13,15.38-30.25,4-11.12,10.18-4.88,10.81-.83s-4.89,14.55-7.59,22.66c-1.87,5.3-3.85,10.81-5.09,14l2.6,2.6c16.63-16.52,15-25.67,21.72-24.32s-.21,17.25-5.51,22.66c-2.29,2.29-5.3,7.59-7.9,12.89,15.18-10.19,15.8-17.46,20.89-15.18C1519.61,200.19,1511.08,212,1505.89,215.57Z"/><path class="cls-14" d="M1178.78,576.36a.72.72,0,0,1-.52.83l-10.91,2a.71.71,0,0,1-.83-.52v-.2l-.21-1v-.11a.72.72,0,0,1,.52-.83l10.91-2a.7.7,0,0,1,.83.51v.11l.21,1Z"/><polygon class="cls-15" points="1178.78 576.15 1166.41 578.43 1166.31 577.4 1178.57 575.11 1178.78 576.15"/><path class="cls-4" d="M1211.21,153.52l-7.07-46.46s-17.35-4.26-18.29,11.33S1196.35,152.59,1211.21,153.52Z"/><path class="cls-1" d="M1271.81,369l-1.87,1.87-1.87,1.87-1.87,1.88a2,2,0,0,1-2.91,0l-1.87-1.88,1-1,1.66,1.66h0a1,1,0,0,0,1.25,0l1.66-1.66,1.87-1.88,1.66-1.66h0a1,1,0,0,0,0-1.25l-1.66-1.66,1-1,1.87,1.87h0A2,2,0,0,1,1271.81,369Z"/><path class="cls-1" d="M1268.17,362.44l-1,1-1.66-1.66h0a1,1,0,0,0-1.25,0l-1.66,1.66-1.87,1.87L1259,367h0a.93.93,0,0,0,0,1.25l1.66,1.66-1,1-1.87-1.87a2,2,0,0,1,0-2.91l1.87-1.87,1.87-1.88,1.87-1.87a2,2,0,0,1,2.91,0Z"/><path class="cls-1" d="M1259.75,370.86l-1.87-1.87a2,2,0,0,1,0-2.91l1.87-1.87,1.87-1.87,1.87-1.87a2,2,0,0,1,2.92,0l1.87,1.87-1,1-1.67-1.66h0a.94.94,0,0,0-1.24,0l-1.67,1.66-1.87,1.87-1.66,1.66h0a1,1,0,0,0,0,1.25l1.66,1.66Z"/><path class="cls-1" d="M1274.41,361.3a2.89,2.89,0,0,0-2.39-.83,3,3,0,0,0-.83-2.39l-6.34-6.34-6.34,6.34a2.84,2.84,0,0,0-.84,2.39,3,3,0,0,0-2.39.83l-6.23,6.24,6.34,6.34a2.86,2.86,0,0,0,2.39.83,3,3,0,0,0,.83,2.39l6.24,6.24,6.23-6.24a2.81,2.81,0,0,0,.83-2.39,3,3,0,0,0,2.39-.83l6.35-6.34Zm-15.9,11.54a1.52,1.52,0,0,1-2.19,0h0l-5.3-5.3,5.3-5.3a1.62,1.62,0,0,1,2.29,0h0l1.14,1.14,1-1-1.14-1.14a1.52,1.52,0,0,1,0-2.19l5.3-5.3,5.3,5.3a1.52,1.52,0,0,1,0,2.19l-1.14,1.14-1.87,1.87L1265,366.5l-2.29-2.29-1,1,2.29,2.29-2.29,2.28-1.87,1.88Zm14.86,0a1.51,1.51,0,0,1-2.18,0h0L1270,371.7l-1,1,1.15,1.15a1.51,1.51,0,0,1,0,2.18l-5.3,5.3-5.31-5.3a1.51,1.51,0,0,1,0-2.18l1.15-1.15,1.87-1.87,2.29-2.28,2.28,2.28,1-1-2.28-2.28,2.28-2.29,1.87-1.87,1.15-1.14a1.61,1.61,0,0,1,2.28,0l5.3,5.3Zm-1.56-6.65-1.87-1.87-1,1,1.66,1.67a1,1,0,0,1,0,1.25h0l-1.66,1.66L1267,371.8l-1.66,1.66a1,1,0,0,1-1.25,0h0l-1.66-1.66-1,1,1.87,1.87a2,2,0,0,0,2.91,0l1.87-1.87,1.87-1.87,1.87-1.87a2,2,0,0,0,0-2.91Z"/><path class="cls-1" d="M1268.17,362.44l-1,1-1.66-1.66h0a1,1,0,0,0-1.25,0l-1.66,1.66-1.87,1.87L1259,367h0a.93.93,0,0,0,0,1.25l1.66,1.66-1,1-1.87-1.87a2,2,0,0,1,0-2.91l1.87-1.87,1.87-1.88,1.87-1.87a2,2,0,0,1,2.91,0Z"/><path class="cls-1" d="M1271.81,369l-1.87,1.87-1.87,1.87-1.87,1.88a2,2,0,0,1-2.91,0l-1.87-1.88,1-1,1.66,1.66h0a1,1,0,0,0,1.25,0l1.66-1.66,1.87-1.88,1.66-1.66h0a1,1,0,0,0,0-1.25l-1.66-1.66,1-1,1.87,1.87h0A2,2,0,0,1,1271.81,369Z"/><path class="cls-16" d="M1007.59,217.76a1.32,1.32,0,0,1-1.25,0c-2-.63-3.22-4.47-3.63-8.21l-.63-.21c.31-2.5,1-3.54,4.26-3,3,.52,3.12,5.31,3.12,5.82C1009.57,215.47,1009.67,217,1007.59,217.76Z"/><path class="cls-16" d="M978.9,210.38c-1.24-1.56-1.87-6.13-2.6-10.92l-.31-.1v-.94c-.31-2.8,7.28-4.26,7.9-.62.31,1.56.42,3.22.73,4.89.21,1,.31,2.07.52,3C986.8,214.33,980.77,212.66,978.9,210.38Z"/><path class="cls-16" d="M998,219.42c-4.16,1.87-6.86-8.21-6.76-14.24l-.62-.21a5.19,5.19,0,0,0,.1-1.24c.11-2.91,3.12-2.6,4.37-2.29,4.88,1.45,4,4.16,4.47,7.07.41,2.49.31,4.57.52,6.13C1000.21,217.13,1000,218.49,998,219.42Z"/><path class="cls-16" d="M1006.24,272.53S998.13,298,983.16,291c0,0-10.6-23-12.57-25.26-3.74-4.57-12.89-5.41-18-15.18s-16.43-19.43-16.43-19.43a4.88,4.88,0,0,1,.63-1.56c.83-1.56,2.59-3.64,6-2.08s6.86,5.51,9.46,8c1.25,1.25,2.39,2.18,3.23,2.29a4,4,0,0,0,1.55,0h.11a1.69,1.69,0,0,0,.73-.11l44,16.95a27.18,27.18,0,0,1-1.35,3.74C997.72,264.53,1006.24,272.53,1006.24,272.53Z"/><path class="cls-16" d="M1002.91,234.28c.31,9.36.42,15.49-1,20.58l-44-17a6.43,6.43,0,0,0,4.05-2.29c.1-.1.21-.21.21-.31,3.12-5.72,1-20.16-.52-26.51A67.12,67.12,0,0,1,959.36,195a12.72,12.72,0,0,0,.94,2.6c.72,1.46,1.35,2.71,2.8,3.12a3.73,3.73,0,0,0,3.75-1.35,3.84,3.84,0,0,0,.62-3.33l.21.11a77.54,77.54,0,0,0,5.92,18l2.08-.21c.52.94,1-5.92.62-14.45l.32.11c.62,4.68,1.24,9.35,2.59,10.91,1.88,2.39,7.8,4,6.24-4.68-.21-1-.31-2-.52-3l.31.1c.52,3.85,1,7.7,1.35,10.09l2.6.83a79,79,0,0,0,2.19-8.53l.2.11c-.1,6,2.6,16.11,6.76,14.24,2-.94,2.18-2.29,2-4.89.73-1.66,1.46-3.43,2.08-5.09l.63.21c.41,3.74,1.66,7.69,3.63,8.21C1004.37,223.47,1002.91,234.28,1002.91,234.28Z"/><path class="cls-11" d="M1025.57,224.62l-11.12,28.89a5.75,5.75,0,0,1-7.48,3.33l-5.2-2-43.86-17-5.72-2.18c-2.6-2.5-5.93-6.45-9.46-8s-5.2.52-6,2.08l-1.66-.62a5.69,5.69,0,0,1-3.33-7.38h0l11.12-28.9a5.76,5.76,0,0,1,7.49-3.32h0l8.52,3.22c.11.73.21,1.56.31,2.28a12.72,12.72,0,0,0,.94,2.6c.73,1.46,1.35,2.71,2.81,3.12a3.72,3.72,0,0,0,3.74-1.35,3.8,3.8,0,0,0,.62-3.33l.21.11,8.63,3.32.31.11c.62,4.68,1.25,9.35,2.6,10.91,1.87,2.39,7.79,4,6.23-4.68-.2-1-.31-2-.52-3l.32.1,6.13,2.39.21.11c-.11,6,2.59,16.11,6.75,14.24,2-.94,2.18-2.29,2-4.89-.11-1.56-.32-3.53-.52-6.13l2.49.94.63.2c.41,3.75,1.66,7.7,3.63,8.22a2.64,2.64,0,0,0,1.25,0c2.08-.73,2.08-2.29,2-5.62l12.78,4.89A5.63,5.63,0,0,1,1025.57,224.62Z"/><line class="cls-17" x1="967.47" y1="196.03" x2="976.1" y2="199.36"/><path class="cls-16" d="M966.64,199.36a3.64,3.64,0,0,1-3.74,1.35c-1.46-.41-2.08-1.66-2.81-3.12a23.93,23.93,0,0,1-1-2.49,13.08,13.08,0,0,1-.31-2.29v-.1l-1-.42s.83-2.91,3.64-2.49c4.67.72,4.67,3.64,5.4,5.19a4.06,4.06,0,0,1,.42.94A3.44,3.44,0,0,1,966.64,199.36Z"/><path class="cls-16" d="M516.78,344.36c4,2.6,12.47,14.45,12.47,14.45,5.09,10.6,8,16.42,13.31,20.47S544,394.35,544,394.35s18.92,18.82,29,5.83c0,0-1.14-25.26-.52-28.17,1.25-5.82,8.84-10.81,8.94-21.83s5.51-24.84,5.51-24.84-4-4.68-7.49-.21-4.26,13.51-6.44,15a6.13,6.13,0,0,1-1.45.72.11.11,0,0,0-.11.11,6.3,6.3,0,0,1-5.3.1c-.1,0-.21-.1-.31-.21-5.41-3.63-10.19-17.46-11.75-23.8-2.18-8.83-5.71-20.79-10.49-17.25s1.45,7.07,2.59,27.33l-2,.84c0,1.45-7.17-10.61-11.43-22.56-2.92-8.31-7.59-3.64-8.11-.62s3.64,10.91,5.71,16.84c1.36,3.95,2.91,8.1,3.75,10.49l-2,2C519.79,321.7,520.94,314.84,516,316s.2,12.89,4,16.84c1.66,1.77,4,5.72,5.93,9.56-11.33-7.58-11.75-13-15.6-11.33C506.49,332.92,512.93,341.76,516.78,344.36Z"/><ellipse class="cls-3" cx="797" cy="1138.26" rx="158.41" ry="32.01"/><path class="cls-16" d="M766.13,847.12s36.7,79.94-4.26,268.59l-67,16.63,33.26-21.2L715.2,858.45Z"/><path class="cls-18" d="M778.81,1007.92c9.88-111.74-12.57-160.8-12.57-160.8l-51,11.33,8.53,166.21C742.75,1021,762,1016.86,778.81,1007.92Z"/><path class="cls-11" d="M718.11,1117.89s-46.87,21.93-22.66,22.35,66.21-18.19,66.21-18.19l.32-6.44C761.87,1115.71,699.4,1132.44,718.11,1117.89Z"/><path class="cls-16" d="M921.53,868.12s25.36,84.19-41.16,265.36l-68.71,7.28,35.86-16.42,21.93-252.06Z"/><path class="cls-18" d="M912,1029c25.16-109.34,9.67-161,9.67-161l-52.07,4.15-14.56,166C874.44,1037.13,894.09,1035.57,912,1029Z"/><path class="cls-11" d="M836.71,1129.74s-49.48,15.28-25.57,18.92,68.08-8.84,68.08-8.84l1.15-6.34S816.23,1141.49,836.71,1129.74Z"/><path class="cls-11" d="M1007.9,679.26c-14.24,98.12-63.4,269.52-79.82,330.22-.84,3.22-1.67,6.13-2.29,8.73,0,0-46.88,10.08-93.24-15.28L860.1,727.07,795.86,869.26,793.47,994.1s-44.9,18.4-99.37,3.43c0,0-2.39-165.17,6.86-192.5S790.25,608,790.25,608L768.11,503.08,892,490a358.62,358.62,0,0,1,48.12,39.71C975.58,564.51,1016.63,618.87,1007.9,679.26Z"/><path class="cls-18" d="M928.08,518.56A356,356,0,0,0,891.9,490L768,503.08l19.12,90.63C840.35,579.37,892.73,560.45,928.08,518.56Z"/><path class="cls-11" d="M860,727.07l-4.57,10.19-59.56,132L793.47,994.1s-1.87.73-5.3,1.87a170.36,170.36,0,0,1-94.07,1.56S691.71,832.36,701,805c6.86-20.37,53-119.74,76.19-169.12C792.12,659.82,825.69,708.26,860,727.07Z"/><path d="M718.32,211.94c2.81-1.67,26-40.75,68-17.47C816,211,802.93,233.87,826.84,244c21.2,8.94,53.94,29.73,36,73.07-8.42,20.27,51.66,57.27-32.53,57.9-53.64.31-60.08,11.85-60.08,11.85Z"/><path d="M737.86,211.73S734,196.14,707.1,195.62,627.89,228.15,647,276.48s-32,69.65-4.47,101.14-9.57,50.52,37.62,66.83,106.75-14.65,87.11-65.17S737.86,211.73,737.86,211.73Z"/><path class="cls-7" d="M717.49,216c.21-.1.31-.31.52-.42l1.35-1.35c1.14-1.24,2.81-3.11,5.09-5.3a100.5,100.5,0,0,1,8.53-7.69,60.66,60.66,0,0,1,12.57-7.9,35.31,35.31,0,0,1,17.26-3.53,26.64,26.64,0,0,1,9.35,2.49,40.7,40.7,0,0,1,8.42,5.51,96.47,96.47,0,0,1,15.07,14.76c4.58,5.51,8.53,11.64,13.2,17.15a43.47,43.47,0,0,0,7.8,7.28,39.28,39.28,0,0,0,4.47,2.8c.83.42,1.56.83,2.39,1.25l2.39,1c1.56.73,3.33,1.25,5,2s3.22,1.36,4.88,2.08a96.42,96.42,0,0,1,9.15,4.89A62.85,62.85,0,0,1,860,263.6a47.3,47.3,0,0,1,5.3,7.48,36.5,36.5,0,0,1,3.43,7.8,44.32,44.32,0,0,1,2.08,14.76A51.62,51.62,0,0,1,869.24,305c-.31,1.56-.72,2.92-1,4.06s-.62,2.18-.93,3l-.83,2.5.83-2.5a26.46,26.46,0,0,0,.93-3c.32-1.14.73-2.6,1-4.16a51.29,51.29,0,0,0,1.25-11.33c0-1.14,0-2.18-.1-3.43a20.24,20.24,0,0,0-.42-3.53,22.26,22.26,0,0,0-.73-3.74A31.08,31.08,0,0,0,868.1,279a42.27,42.27,0,0,0-3.43-7.69,39.63,39.63,0,0,0-5.2-7.28,65.26,65.26,0,0,0-15-12.26,74.47,74.47,0,0,0-9-4.78c-1.56-.73-3.22-1.46-4.78-2.08s-3.32-1.25-5-2l-2.49-1c-.83-.41-1.67-.83-2.39-1.25a26.53,26.53,0,0,1-4.68-2.91,49.19,49.19,0,0,1-8-7.48c-4.78-5.61-8.63-11.74-13.1-17.25a98.36,98.36,0,0,0-14.76-14.66,43.66,43.66,0,0,0-8.21-5.51,27.28,27.28,0,0,0-9-2.49,33.37,33.37,0,0,0-16.84,3.22,54.07,54.07,0,0,0-6.86,3.64,67.44,67.44,0,0,0-5.72,3.95,84.7,84.7,0,0,0-8.63,7.48c-2.28,2.18-4.05,3.95-5.19,5.2l-1.36,1.35A11.25,11.25,0,0,0,717.49,216Z"/><path class="cls-7" d="M739.42,214.54a19.35,19.35,0,0,0-1.25-3.12,20.11,20.11,0,0,0-6.23-7,36.53,36.53,0,0,0-13.31-5.82,47.84,47.84,0,0,0-18.81-.62,72.59,72.59,0,0,0-21.1,7.38,77.7,77.7,0,0,0-20,15,57,57,0,0,0-13.51,22.76,51.19,51.19,0,0,0-.21,27.13c.63,2.18,1.35,4.47,2,6.65.31,1.14.72,2.18,1,3.33l.83,3.43a55.79,55.79,0,0,1-1.25,27.44,91,91,0,0,1-4.78,12.47c-3.64,8-8.11,15.28-10.71,22.76a32,32,0,0,0-2,11.23A27,27,0,0,0,632.57,368c.41.73.73,1.56,1.14,2.29l1.35,2.18c.94,1.35,1.87,2.71,2.81,3.95a53.72,53.72,0,0,1,5,7.59,38.9,38.9,0,0,1,4.47,14,58.63,58.63,0,0,1,.21,9.46c-.11,2.18-.21,3.33-.21,3.33s.1-1.15.21-3.33a57.63,57.63,0,0,0-.42-9.46,40.4,40.4,0,0,0-4.68-13.82,49.23,49.23,0,0,0-5.09-7.49c-.94-1.24-2-2.59-2.91-3.95-.42-.72-.94-1.45-1.35-2.18a16.44,16.44,0,0,1-1.14-2.39,26.91,26.91,0,0,1-2.6-10.7,34.36,34.36,0,0,1,2-11.65c2.6-7.69,7-15,10.6-22.86a84.68,84.68,0,0,0,4.68-12.37,54.8,54.8,0,0,0,1.14-26.92l-.83-3.33c-.31-1.14-.62-2.18-1-3.33l-1-3.32c-.31-1.15-.72-2.29-1-3.43a52.79,52.79,0,0,1,.32-27.86,58,58,0,0,1,13.82-23.18,78.17,78.17,0,0,1,20.37-15A71.44,71.44,0,0,1,699.72,197a46.92,46.92,0,0,1,19,.83,36.39,36.39,0,0,1,13.41,6,20.55,20.55,0,0,1,6.13,7.17A27.47,27.47,0,0,1,739.42,214.54Z"/><path class="cls-16" d="M832,459c-1.56.93-24.63-10.61-50.3-23.91-3.33-1.66-6.66-3.43-10-5.2C741.08,413.79,710.11,397,710.11,397l36.59-18.08-32-58.42,44-9,30,51.87,6-2.6,28.06-12.06,18.92-8.11C841.7,340.41,861.66,440.19,832,459Z"/><line class="cls-17" x1="737.65" y1="383.44" x2="723.52" y2="390.4"/><path class="cls-3" d="M745.66,368.16l-4.37.62-26.61-48.33,44.07-9L787,360.05C773.72,364.84,758.65,366.29,745.66,368.16Z"/><path class="cls-16" d="M678.93,289.58s-14.76-40.74,28.58-65.79,78.27,8.94,91.68,40,18.08,69.64-15.91,88.35C741.92,375.13,702,341.86,678.93,289.58Z"/><path class="cls-16" d="M684.85,297.48s-18.08,1.77-9.77,18.19c13.41,26.19,29.42,10.91,29.42,10.91S693.37,319.72,684.85,297.48Z"/><path d="M737.86,211.73s10.81,31.7-2,52.59-36,31.81-36,31.81,10.71,30.25,4.68,26.09c0,0-18.4-20.48-26.71-28.69s-22.56-58.83,12.78-75.15S737.86,211.73,737.86,211.73Z"/><path class="cls-7" d="M737.55,211.94a39.54,39.54,0,0,1,1.66,4.05,101.09,101.09,0,0,1,3.33,11.23,79.15,79.15,0,0,1,2,16.42,50.45,50.45,0,0,1-3.32,18.71c-.31.73-.73,1.45-1,2.18s-.83,1.46-1.14,2.08l-1.15,2.08a12.46,12.46,0,0,1-1.35,2,21.7,21.7,0,0,1-1.35,2c-.52.62-.94,1.25-1.46,1.87-.93,1.25-1.87,2.49-2.91,3.64a86.54,86.54,0,0,1-5.92,6.34c-2,2-4,3.64-5.82,5.2s-3.64,2.91-5.2,4.05-3,2.08-4.16,2.81c-2.39,1.55-3.84,2.28-3.84,2.28l.93-.62c.63-.42,1.56-1,2.71-1.87s2.49-1.87,4-3,3.22-2.6,5-4.15,3.74-3.33,5.61-5.31c.94-1,2-2,2.91-3.11s2-2.19,2.91-3.33,1.87-2.29,2.81-3.53c.41-.63.93-1.25,1.35-1.87s.83-1.36,1.25-2,.83-1.35,1.24-2l1.15-2.08c.41-.73.83-1.46,1.14-2.08a20.62,20.62,0,0,0,.94-2.19,47.31,47.31,0,0,0,3.43-18.18,84.83,84.83,0,0,0-1.56-16.22,99.63,99.63,0,0,0-2.81-11.23A34.68,34.68,0,0,0,737.55,211.94Z"/><path class="cls-19" d="M680.69,316c-.41-1-.72-2.18-1-3.32a13,13,0,0,1-.41-3.43,8.68,8.68,0,0,1,.21-1.77,3.53,3.53,0,0,1,.83-1.66c.21-.21.41-.52.73-.63a2.91,2.91,0,0,1,.83-.41,2.84,2.84,0,0,1,.93-.21,2.7,2.7,0,0,1,.94,0h.21l.1.21,2,3.43c.62,1.14,1.35,2.28,1.87,3.43l1.87,3.43,1.87,3.43.1.31-.21.21a8.45,8.45,0,0,0-1.76,2.08,2.48,2.48,0,0,0-.31,2.39,4.27,4.27,0,0,0,2.18,1.56,6.75,6.75,0,0,0,1.35.41c.41.11.93.21,1.35.31a13,13,0,0,1-2.81-.41,5.42,5.42,0,0,1-1.35-.52c-.21-.11-.41-.31-.62-.42a2.59,2.59,0,0,1-.52-.62c-.1-.21-.21-.52-.31-.73s-.11-.52,0-.83a3.5,3.5,0,0,1,.52-1.46,8.94,8.94,0,0,1,.83-1.24,9.83,9.83,0,0,1,1-1.15l-.11.52c-.72-1.14-1.35-2.28-2-3.43L687,312l-1.87-3.43-1.87-3.43.42.21h-.83c-.21,0-.52.1-.73.1s-.52.21-.73.32a2.59,2.59,0,0,0-.62.52,3.36,3.36,0,0,0-.73,1.35,4.27,4.27,0,0,0-.31,1.66A24.59,24.59,0,0,0,680.69,316Z"/><path class="cls-7" d="M759.27,261.52a1.54,1.54,0,0,1,.11-.42,3.23,3.23,0,0,1,.41-1,18.44,18.44,0,0,1,2.08-3.64c.52-.72,1.15-1.45,1.77-2.18a11.77,11.77,0,0,1,1.14-1l.63-.52.62-.52,1.35-.93c.52-.31.94-.52,1.46-.83l.72-.42.84-.31,1.66-.63c1.14-.31,2.29-.62,3.43-.83s2.29-.21,3.32-.21,2.08.11,3.12.21a21.7,21.7,0,0,1,2.71.52l1.14.21c.41.1.73.21,1,.31a14,14,0,0,1,1.66.63c.94.31,1.46.52,1.46.52a8.9,8.9,0,0,1-1.56-.21c-.52-.11-1-.11-1.77-.21-.31,0-.73-.1-1-.1l-1.14-.11c-.83,0-1.67-.1-2.6-.1s-1.87.1-2.91.1-2,.31-3.12.42-2.08.52-3.12.73l-1.45.51-.73.32-.73.31c-.41.21-.93.52-1.35.73s-.83.52-1.25.83l-.62.41-.62.42-1.15.83c-.62.62-1.35,1.14-1.87,1.77s-1,1.14-1.56,1.66a10.53,10.53,0,0,0-1,1.35,6.83,6.83,0,0,0-.62.94A6,6,0,0,1,759.27,261.52Z"/><path class="cls-7" d="M793.37,277.32a12.9,12.9,0,0,1-.73-1.46,15.13,15.13,0,0,0-.94-1.66,21.07,21.07,0,0,0-1.35-2,10.51,10.51,0,0,0-.83-1,10.81,10.81,0,0,0-.93-1,14.36,14.36,0,0,0-2.4-2,7.63,7.63,0,0,0-2.91-1.14,4.59,4.59,0,0,0-3.11.41,7,7,0,0,0-2.6,2,9.55,9.55,0,0,0-1.67,2.8,10.41,10.41,0,0,0-.83,3,13.34,13.34,0,0,0-.31,2.8,30.42,30.42,0,0,0,0,4.27c.11,1,.11,1.66.11,1.66s-.21-.63-.42-1.56c-.1-.52-.21-1.14-.31-1.87a19,19,0,0,1-.21-2.5c0-1,0-2,.1-3a10.68,10.68,0,0,1,.32-1.66,13.69,13.69,0,0,1,2.28-4.89,8.27,8.27,0,0,1,3-2.39,7.36,7.36,0,0,1,4-.42,8.42,8.42,0,0,1,3.43,1.46,15.85,15.85,0,0,1,1.35,1,12.91,12.91,0,0,1,1.14,1.25,12,12,0,0,1,1.66,2.39,19.88,19.88,0,0,1,1.15,2.18c.31.73.52,1.25.72,1.77A8.64,8.64,0,0,0,793.37,277.32Z"/><path class="cls-7" d="M748.57,292.7a15.44,15.44,0,0,1-.73-1.46,15.13,15.13,0,0,0-.94-1.66,21,21,0,0,0-1.35-2,8.59,8.59,0,0,0-.83-1,8.85,8.85,0,0,0-.93-1,14.28,14.28,0,0,0-2.39-2,7.93,7.93,0,0,0-2.91-1.14,4.61,4.61,0,0,0-3.12.42,6.89,6.89,0,0,0-2.6,2,9.36,9.36,0,0,0-1.66,2.81,10,10,0,0,0-.84,3,13.44,13.44,0,0,0-.31,2.81,30.27,30.27,0,0,0,0,4.26c.11,1,.11,1.66.11,1.66s-.21-.62-.42-1.56c-.1-.52-.21-1.14-.31-1.87a19,19,0,0,1-.21-2.49c0-1,0-2,.1-3a10.68,10.68,0,0,1,.32-1.66,13.9,13.9,0,0,1,2.28-4.89,8.37,8.37,0,0,1,3-2.39,7.27,7.27,0,0,1,3.95-.41,8.54,8.54,0,0,1,3.43,1.45c.52.32.93.73,1.35,1a12.91,12.91,0,0,1,1.14,1.25,12.39,12.39,0,0,1,1.67,2.39,24,24,0,0,1,1.14,2.18c.31.73.52,1.25.73,1.77A8,8,0,0,0,748.57,292.7Z"/><path class="cls-20" d="M763.85,281.06c1.24,1.25,2.49,2.6,3.74,3.95.62.62,1.25,1.35,1.77,2s1.14,1.35,1.76,2.08c1.15,1.35,2.29,2.7,3.43,4.16s2.19,2.81,3.33,4.26l.31.31-.21.42c-.83,2.18-1.76,4.47-2.7,6.65s-1.87,4.37-3,6.55c.62-2.29,1.24-4.68,2-7s1.46-4.57,2.29-6.86l.1.73c-1.14-1.35-2.28-2.8-3.32-4.16s-2.19-2.8-3.23-4.26l-1.56-2.18L767,285.53A41.72,41.72,0,0,1,763.85,281.06Z"/><path class="cls-1" d="M790.66,316.19c-9.45,19.85-31.39,20.48-43.13,12.58"/><path class="cls-7" d="M712.4,271.6a1.79,1.79,0,0,1,.1-.42,3.11,3.11,0,0,1,.42-1,18.31,18.31,0,0,1,2.07-3.63c.52-.73,1.15-1.46,1.77-2.19a12.07,12.07,0,0,1,1.15-1l.62-.52.62-.52,1.35-.93c.52-.31.94-.52,1.46-.83l.73-.42.83-.31,1.66-.62c1.14-.32,2.29-.63,3.43-.84s2.29-.2,3.33-.2,2.08.1,3.12.2a23.5,23.5,0,0,1,2.7.52l1.14.21c.42.11.73.21,1,.31a14,14,0,0,1,1.66.63c.94.31,1.46.52,1.46.52a8.9,8.9,0,0,1-1.56-.21c-.52-.1-1-.1-1.77-.21-.31,0-.72-.1-1-.1l-1.14-.11c-.83,0-1.66-.1-2.6-.1s-1.87.1-2.91.1-2,.32-3.12.42-2.08.52-3.12.73l-1.45.52-.73.31-.73.31c-.41.21-.93.52-1.35.73s-.83.52-1.24.83l-.63.42-.62.41c-.42.31-.73.52-1.14.83-.63.63-1.36,1.15-1.88,1.77s-1,1.14-1.55,1.66a9,9,0,0,0-1,1.35,7.15,7.15,0,0,0-.63.94A5.73,5.73,0,0,1,712.4,271.6Z"/><path class="cls-3" d="M677.47,417c-1.56,1.77-3.22,3.54-4.78,5.51C650.86,449.34,619,474.6,619,474.6L577.79,373.46l-36.9,16.74s22.77,134.71,49.58,143c20.58,6.44,89.7-42.51,120.68-65.59C700.13,450.59,687.35,434.68,677.47,417Z"/><path class="cls-9" d="M1008.11,265.36l-39.81-.93s-4.26,62.05-20.79,84.5C927.45,347.79,895,336,859.89,337.08c-7.38.21-21.2,1.77-37.11,11.44-6.75,4.15-17.25,7.48-22,9.45,0,0-5.82,21.42-7.7,30.25-1.35,6.24-4.26,25.68-4.26,25.68s-39.29-12.69-69.12-23.39c0,0-25.15,5-47,31.91S619,474.49,619,474.49L577.79,373.36l-36.9,16.73s22.77,134.71,49.58,143c21,6.54,92.51-44.49,122.55-66.94.52,15.59,6.65,37.73,32.85,40.74a8.07,8.07,0,0,1,7.06,6.86l6.76,53.33a5.94,5.94,0,0,0,6.55,5.09h.31c23.28-4.37,107.89-22.66,160.17-69a4.61,4.61,0,0,0,.94-5.82l-52-86.69S945,408.18,975.47,400c.21.1,7-4,12.16-10.6,5.93-7.59,10.29-17.88,10.4-18C1012.06,344.25,1008.11,265.36,1008.11,265.36Z"/><path class="cls-18" d="M1007.9,679.26c-14.24,98.12-63.4,269.52-79.82,330.22a19.27,19.27,0,0,1-7.38-8.94c-4.16-10.91,4.57-23.38,6.65-26.71,13.61-21,27.33-87.52,54.57-220.57,19.54-95.21,16.42-119.84,4.47-135.85-11.33-15.17-20.17-32.22-32.33-46.77-7-8.32-15.07-17.15-15.59-30a35.4,35.4,0,0,1,1.35-10.91C975.58,564.51,1016.63,618.87,1007.9,679.26Z"/><path class="cls-18" d="M860,727.07,795.76,869.26,793.37,994.1s-1.87.73-5.3,1.87c-.32-8.11-.42-15.07-.52-20.58-.63-51.35,3.32-82.74-.73-96.88a25,25,0,0,1-.73-11.43,24.3,24.3,0,0,1,5.72-11.43c2.7-3.33,17.25-34.72,46.25-97.6C846.38,740.27,855.63,729.15,860,727.07Z"/><path class="cls-11" d="M770.6,478.55c-1,.62-7.27,1-8.62-1-.11-.21-.21-.31-.32-.52-.62-.94-1.24-2.08-2-3.22a18.85,18.85,0,0,0-1.14-1.88c0-.1-.11-.1-.11-.2-.31-.63-.73-1.25-1-1.87q-2.34-4.21-5.3-9.36c-1.87-3.53-3.84-7.27-5.92-11.33-.94-2.08-2-4.16-3-6.23s-2.08-4.37-3-6.55-2-4.58-3-6.86-1.87-4.78-2.91-7.18c-2-4.78-3.63-9.87-5.5-14.86-.84-2.49-1.56-5-2.4-7.59-.31-1.14-.72-2.18-1-3.32-.42-1.35-.73-2.6-1.15-4-.21-.73-.41-1.56-.62-2.29l14.13-7c.42,2.08.84,4.15,1.15,6.23.21.94.31,1.87.52,2.91.31,1.25.52,2.5.83,3.64.52,2.5,1,5,1.66,7.38,1.35,4.89,2.5,9.88,4.06,14.66.72,2.39,1.35,4.78,2.18,7.07s1.56,4.57,2.28,6.86,1.56,4.46,2.4,6.65,1.55,4.26,2.39,6.34c1.66,4.05,3.32,7.9,4.78,11.43,1.56,3.33,2.91,6.45,4.26,9.15,0,.1.1.21.21.41.31.73.62,1.36.93,2.08s.63,1.25.94,1.87l1.66,3.33C770.08,477.4,770.6,478.55,770.6,478.55Z"/><path class="cls-12" d="M772.06,479.48c-1,.63-3.74.63-4.89.63A5.37,5.37,0,0,1,762,477.4c-.11-.2-.21-.31-.32-.52-.62-.93-1.24-2.07-2-3.22a18.74,18.74,0,0,0-1.14-1.87c0-.1-.11-.1-.11-.21a15.9,15.9,0,0,1,5.82-5.92c0,.1.11.21.21.41.31.73.62,1.36.94,2.08l.93,1.87,1.67,3.33A23.91,23.91,0,0,0,772.06,479.48Z"/><path class="cls-11" d="M822.78,348.62c-.31.42-.52.83-.83,1.25a44.62,44.62,0,0,0-3,4.36c-1,1.56-2.08,3.23-3.23,4.89s-2.18,3.53-3.32,5.3c-.52.93-1.15,1.87-1.66,2.81s-1.15,2-1.67,2.91c-1,2-2.28,3.95-3.43,6s-2.18,4.27-3.32,6.45-2.08,4.47-3.23,6.65l-1.56,3.43c-.52,1.14-1,2.29-1.55,3.43-1,2.29-2.08,4.68-3,7-1.87,4.67-3.74,9.45-5.4,14.13-.84,2.39-1.77,4.68-2.39,7.07s-1.46,4.68-2.19,7c-.41,1.25-.83,2.6-1.14,3.85-.31.94-.52,2-.83,2.91-.63,2.18-1.25,4.37-1.77,6.55-1,4.26-2,8.31-2.91,12.06-.73,3.74-1.45,7.17-2.08,10.29a17.92,17.92,0,0,0-.41,2.18c-.11.73-.21,1.45-.32,2.08-.2,1.35-.41,2.6-.62,3.64-.73,4.46-.83,4.67-.83,4.67a21.11,21.11,0,0,1-3.64.63,19.7,19.7,0,0,1-3.33-.63s.11-1,.42-5.61c.1-1.14.21-2.39.31-3.74.11-.73.11-1.35.21-2.18l.31-2.29c.42-3.22.83-6.76,1.25-10.71.62-3.95,1.25-8.11,1.87-12.57.42-2.19.83-4.47,1.25-6.86.31-1.88.73-3.75,1.14-5.72.1-.52.21-.94.31-1.46.52-2.39,1-4.88,1.67-7.38s1.24-5,1.87-7.48c1.24-5.09,2.8-10.08,4.36-15.18.83-2.49,1.67-5,2.5-7.58.41-1.25.83-2.5,1.24-3.75s.94-2.49,1.36-3.63c.93-2.39,1.76-4.89,2.8-7.28s2-4.68,2.91-7.07,2.08-4.47,3-6.75c.31-.63.52-1.15.83-1.77Z"/><path class="cls-11" d="M784.64,473.77H747.32a1.2,1.2,0,0,0-1.25,1.24h0v58.52a1.2,1.2,0,0,0,1.25,1.25h37.32a1.2,1.2,0,0,0,1.24-1.25h0V475a1.2,1.2,0,0,0-1.24-1.24Zm-11.54,7.06H760.73a.59.59,0,0,1-.62-.62.67.67,0,0,1,.62-.62H773.1a.62.62,0,0,1,0,1.24Z"/><path class="cls-14" d="M524.16,338.64l6.65-5.82a.79.79,0,0,0,.1-1l-.93-1a.79.79,0,0,0-1-.1l-6.55,5.92a.79.79,0,0,0-.1,1l.93,1A.78.78,0,0,0,524.16,338.64Z"/><polygon class="cls-15" points="530.81 331.78 523.12 338.43 522.39 337.6 530.19 330.95 530.81 331.78"/><polygon class="cls-14" points="529.25 332.09 529.56 332.4 529.46 332.93 528.94 333.03 528.63 332.61 528.84 332.2 529.25 332.09"/><polygon class="cls-14" points="529.98 331.47 530.29 331.78 530.19 332.3 529.67 332.4 529.36 331.99 529.56 331.57 529.98 331.47"/><polygon class="cls-14" points="530.71 331.68 530.39 331.78 530.08 331.37 530.19 331.05 530.39 331.05 530.71 331.47 530.71 331.68"/><polygon class="cls-14" points="528.52 332.72 528.84 333.03 528.73 333.55 528.21 333.65 527.9 333.24 528.11 332.82 528.52 332.72"/><polygon class="cls-14" points="527.9 333.34 528.21 333.65 528 334.17 527.59 334.28 527.17 333.86 527.38 333.44 527.9 333.34"/><polygon class="cls-14" points="527.17 333.96 527.48 334.28 527.28 334.8 526.86 334.9 526.55 334.48 526.65 334.07 527.17 333.96"/><polygon class="cls-14" points="526.45 334.59 526.76 334.9 526.55 335.42 526.13 335.42 525.82 335.11 525.92 334.69 526.45 334.59"/><polygon class="cls-14" points="525.72 335.21 526.03 335.52 525.82 336.04 525.4 336.04 525.09 335.73 525.2 335.32 525.72 335.21"/><polygon class="cls-14" points="524.99 335.83 525.3 336.15 525.2 336.67 524.68 336.67 524.37 336.36 524.47 335.94 524.99 335.83"/><polygon class="cls-14" points="524.26 336.46 524.57 336.77 524.47 337.29 523.95 337.29 523.64 336.98 523.85 336.56 524.26 336.46"/><polygon class="cls-14" points="523.53 337.08 523.85 337.39 523.74 337.91 523.22 338.02 522.91 337.6 523.12 337.19 523.53 337.08"/><polygon class="cls-14" points="522.5 337.71 522.81 337.6 523.12 338.02 523.01 338.33 522.91 338.33 522.5 337.91 522.5 337.71"/><path class="cls-1" d="M773,505.68l-1.87,1.87-1.87,1.87-1.87,1.87a2,2,0,0,1-2.91,0l-1.87-1.87,1-1L765.3,510h0a1,1,0,0,0,1.25,0l1.66-1.66,1.87-1.87,1.67-1.67h0a.94.94,0,0,0,0-1.24l-1.67-1.67,1-1,1.87,1.88h0A2,2,0,0,1,773,505.68Z"/><path class="cls-1" d="M769.25,499l-1,1-1.66-1.66h0a1,1,0,0,0-1.25,0l-1.66,1.66-1.87,1.87-1.66,1.67h0a.92.92,0,0,0,0,1.24l1.66,1.67-1,1-1.87-1.87a2,2,0,0,1,0-2.91l1.87-1.88L762.6,499l1.87-1.87a2,2,0,0,1,2.91,0Z"/><path class="cls-1" d="M760.94,507.55l-1.87-1.87a2,2,0,0,1,0-2.91l1.87-1.88,1.87-1.87,1.87-1.87a2,2,0,0,1,2.91,0l1.87,1.87-1,1-1.66-1.66h0a1,1,0,0,0-1.25,0l-1.66,1.66L762,501.93l-1.67,1.67h0a.94.94,0,0,0,0,1.24l1.67,1.67Z"/><path class="cls-1" d="M775.59,497.88a2.83,2.83,0,0,0-2.39-.83,3,3,0,0,0-.83-2.39L766,488.32l-6.34,6.34a2.83,2.83,0,0,0-.83,2.39,3,3,0,0,0-2.39.83l-6.24,6.24,6.34,6.34a2.89,2.89,0,0,0,2.39.83,3,3,0,0,0,.83,2.39l6.24,6.24,6.24-6.24a2.87,2.87,0,0,0,.83-2.39,3,3,0,0,0,2.39-.83l6.34-6.34Zm-15.9,11.64a1.49,1.49,0,0,1-2.18,0h0l-5.3-5.3,5.3-5.3a1.63,1.63,0,0,1,2.28,0h0l1.15,1.14,1-1-1.15-1.14a1.51,1.51,0,0,1,0-2.18l5.3-5.3,5.31,5.3a1.51,1.51,0,0,1,0,2.18L770.29,499l-1.87,1.87-2.29,2.29-2.28-2.29-1,1,2.28,2.29-2.28,2.29-1.87,1.87Zm14.86,0a1.49,1.49,0,0,1-2.18,0h0l-1.14-1.14-1,1,1.14,1.14a1.51,1.51,0,0,1,0,2.18L766,518l-5.3-5.3a1.51,1.51,0,0,1,0-2.18l1.14-1.14,1.87-1.87,2.29-2.29,2.29,2.29,1-1-2.29-2.29,2.29-2.29,1.87-1.87,1.14-1.14a1.64,1.64,0,0,1,2.29,0l5.3,5.3ZM773,502.77l-1.87-1.88-1,1,1.67,1.67a.94.94,0,0,1,0,1.24h0l-1.67,1.67-1.87,1.87L766.55,510a1,1,0,0,1-1.25,0h0l-1.66-1.66-1,1,1.87,1.87a2,2,0,0,0,2.91,0l1.87-1.87,1.87-1.87,1.87-1.87a2,2,0,0,0,0-2.91Z"/><path class="cls-1" d="M769.25,499l-1,1-1.66-1.66h0a1,1,0,0,0-1.25,0l-1.66,1.66-1.87,1.87-1.66,1.67h0a.92.92,0,0,0,0,1.24l1.66,1.67-1,1-1.87-1.87a2,2,0,0,1,0-2.91l1.87-1.88L762.6,499l1.87-1.87a2,2,0,0,1,2.91,0Z"/><path class="cls-1" d="M773,505.68l-1.87,1.87-1.87,1.87-1.87,1.87a2,2,0,0,1-2.91,0l-1.87-1.87,1-1L765.3,510h0a1,1,0,0,0,1.25,0l1.66-1.66,1.87-1.87,1.67-1.67h0a.94.94,0,0,0,0-1.24l-1.67-1.67,1-1,1.87,1.88h0A2,2,0,0,1,773,505.68Z"/></g></g></svg>